<!-- Generated by IcoMoon.io -->
<svg version="1.1" xmlns="http://www.w3.org/2000/svg" width="32" height="32" viewBox="0 0 32 32">
<title>notebook-list</title>
<path d="M9 2h1v2h-1v-2z"></path>
<path d="M13 2h1v2h-1v-2z"></path>
<path d="M17 2h1v2h-1v-2z"></path>
<path d="M21 2h1v2h-1v-2z"></path>
<path d="M10 22h1v1h-1v-1z"></path>
<path d="M10 17h1v1h-1v-1z"></path>
<path d="M10 12h1v1h-1v-1z"></path>
<path d="M23.003 4c0 0-0.878 0-1.003 0v2h-1v-2h-3v2h-1v-2h-3v2h-1v-2h-3v2h-1v-2c-0.125 0-1.003 0-1.003 0-1.103 0-1.997 0.891-1.997 2.003v20.994c0 1.106 0.891 2.003 1.997 2.003h15.006c1.103 0 1.997-0.891 1.997-2.003v-20.994c0-1.106-0.891-2.003-1.997-2.003zM12 24h-3v-3h3v3zM12 19h-3v-3h3v3zM12 14h-3v-3h3v3zM22 23h-8v-1h8v1zM22 18h-8v-1h8v1zM22 13h-8v-1h8v1z"></path>
</svg>
